<?xml version="1.0" encoding="UTF-8" standalone="no"?>
<!-- Created with Inkscape (http://www.inkscape.org/) -->

<svg
   width="428.39771mm"
   height="362.01184mm"
   viewBox="0 0 428.3977 362.01184"
   version="1.1"
   id="svg1"
   xml:space="preserve"
   inkscape:version="1.3.2 (091e20ef0f, 2023-11-25, custom)"
   sodipodi:docname="logo_github.svg"
   inkscape:export-filename="logo_github.png"
   inkscape:export-xdpi="30.35684"
   inkscape:export-ydpi="30.35684"
   xmlns:inkscape="http://www.inkscape.org/namespaces/inkscape"
   xmlns:sodipodi="http://sodipodi.sourceforge.net/DTD/sodipodi-0.dtd"
   xmlns="http://www.w3.org/2000/svg"
   xmlns:svg="http://www.w3.org/2000/svg"><sodipodi:namedview
     id="namedview1"
     pagecolor="#ffffff"
     bordercolor="#999999"
     borderopacity="1"
     inkscape:showpageshadow="0"
     inkscape:pageopacity="0"
     inkscape:pagecheckerboard="0"
     inkscape:deskcolor="#d1d1d1"
     inkscape:document-units="mm"
     inkscape:zoom="0.58520328"
     inkscape:cx="413.53152"
     inkscape:cy="827.06304"
     inkscape:window-width="2201"
     inkscape:window-height="2062"
     inkscape:window-x="0"
     inkscape:window-y="0"
     inkscape:window-maximized="0"
     inkscape:current-layer="layer1" /><defs
     id="defs1" /><g
     inkscape:label="Layer 1"
     inkscape:groupmode="layer"
     id="layer1"
     transform="translate(-437.75063,45.653906)"><g
       id="g23"
       transform="translate(123.46169,136.12731)"
       style="fill:#eb393e;fill-opacity:1;stroke:#eb393e;stroke-width:2;stroke-dasharray:none;stroke-opacity:1"><path
         style="fill:#eb393e;fill-opacity:1;stroke:#eb393e;stroke-width:2;stroke-dasharray:none;stroke-opacity:1"
         d="m 581.27938,-72.669076 c 9.5951,-3.5376 12.55338,-15.93484 5.48834,-22.999876 -2.60468,-2.6047 -4.64414,-3.44014 -9.03396,-3.70068 -3.3326,-0.1978 -4.38524,-0.0444 -6.49308,0.94644 -3.04688,1.4322 -6.31716,5.008056 -7.16348,7.832776 -0.8387,2.79932 -0.78634,7.6811 0.1052,9.81498 2.67218,6.39546 11.0121,10.34974 17.09692,8.10636 z"
         id="path23" /><path
         style="fill:#eb393e;fill-opacity:1;stroke:#eb393e;stroke-width:2;stroke-dasharray:none;stroke-opacity:1"
         d="m 427.76432,31.281684 c 1.1713,-0.71428 2.5429,-2.75514 4.8887,-7.27406 4.44703,-8.56666 9.27169,-15.2556204 15.92677,-22.0809604 6.14984,-6.30722 8.2689,-8.0718996 16.28216,-13.5591996 20.8368,-14.26862 45.89041,-21.75968 70.28253,-21.01454 12.04944,0.36808 20.91788,1.77528 31.48542,4.99596 8.84092,2.69444 11.84966,2.19062 13.84414,-2.31824 1.56174,-3.53058 0.65186,-6.71766 -2.46706,-8.6415 -3.86456,-2.38374 -17.55518,-5.8724 -28.2533,-7.1995 -12.28396,-1.52384 -33.6816,-0.7314 -43.71335,1.61888 -23.42044,5.48704 -39.42038,12.77776 -56.38902,25.6949 -7.77808,5.92094 -18.60029,17.4406796 -23.34149,24.8458796 -5.7614,8.9986004 -8.9062,15.6879204 -8.9029,18.9373004 0.01,5.28112 5.9169,8.70288 10.3574,5.99508 z"
         id="path22" /><path
         style="fill:#eb393e;fill-opacity:1;stroke:#eb393e;stroke-width:2;stroke-dasharray:none;stroke-opacity:1"
         d="m 523.59934,77.162284 c 6.95616,-6.45332 12.07524,-10.02618 19.87346,-13.87064 9.88502,-4.87322 19.88044,-7.81824 33.47584,-9.86318 5.7249,-0.86112 9.72044,-1.0354 23.8125,-1.03864 18.24058,-0.004 24.32426,-0.40356 36.24718,-2.37934 13.37587,-2.21656 21.97681,-4.99876 34.79331,-11.2548 8.57548,-4.18588 18.36864,-10.3028 20.17858,-12.60376 1.74848,-2.22282 1.93856,-4.58426 0.5928,-7.36424 -1.33098,-2.74944 -3.24076,-3.97324 -6.19288,-3.96846 -2.29718,0.004 -2.74202,0.21802 -9.94814,4.79232 -4.959,3.14788 -16.16056,9.00728 -18.52084,9.68804 -0.88522,0.25532 -1.60394,-0.57964 -4.39408,-5.10482 -4.78626,-7.7626 -9.64905,-13.61758 -20.45003,-24.62274043 -6.99444,-7.12663957 -9.37386,-9.86897957 -9.00068,-10.37349957 0.279,-0.37722 1.39582,-1.85182 2.48182,-3.2769 2.77334,-3.63928 6.05628,-10.52694 7.06644,-14.82548 1.32438,-5.63566 0.80942,-14.99672 -1.14634,-20.8385 -1.62748,-4.8612 -6.5189,-12.7211 -9.034,-14.51648 -0.79938,-0.57062 -2.61858,-1.11776 -4.11542,-1.23776 -2.17598,-0.1744 -3.0311,0.0218 -4.52708,1.0386 -4.15652,2.82522 -4.23146,5.93772 -0.28828,11.97052 6.33944,9.69888 7.06904,16.47878 2.74404,25.49928 -1.22356,2.55194 -2.90162,4.6764 -6.50236,8.23216 -6.0977,6.0215 -6.93284,8.02032 -4.92772,11.794 0.81832,1.54014 2.46032,3.3047996 4.46868,4.8025596 4.55678,3.39826 18.99292,17.9498004 23.66542,23.8546004 4.97462,6.28664 8.96632,12.12952 8.64346,12.65196 -0.3055,0.49428 -3.9783,1.3219 -12.20054,2.74922 -5.47086,0.9497 -9.72002,1.16194 -30.69166,1.53312 -13.38792,0.23694 -25.05604,0.57788 -25.92918,0.75766 -0.87312,0.1798 -3.61156,0.69288 -6.0854,1.14024 -7.21568,1.30484 -17.8176,4.23298 -23.7691,6.56476 -8.65638,3.39154 -19.22658,9.75908 -25.4434,15.3272 -0.72762,0.65168 -2.567,2.26242 -4.08754,3.5794 -3.31874,2.87444 -5.0228,5.57852 -5.09434,8.08394 -0.126,4.41458 2.74752,7.38354 7.16174,7.39942 2.37306,0.008 2.67498,-0.174 7.14374,-4.31976 z"
         id="path21" /><path
         style="fill:#eb393e;fill-opacity:1;stroke:#eb393e;stroke-width:2;stroke-dasharray:none;stroke-opacity:1"
         d="m 679.07781,87.911162 c 5.12768,-2.33748 8.20446,-7.067618 8.19914,-12.605138 -0.004,-4.24856 -0.73036,-6.474 -2.9647,-9.08434 -6.6256,-7.74052 -18.7724,-6.40554 -22.86266,2.51268 -4.4034,9.60092 2.05272,20.141678 12.33656,20.141678 1.94584,0 3.99444,-0.37354 5.29166,-0.96488 z"
         id="path20" /><path
         style="fill:#eb393e;fill-opacity:1;stroke:#eb393e;stroke-width:2;stroke-dasharray:none;stroke-opacity:1"
         d="m 525.61948,121.77066 c 12.45618,-2.75996 20.23024,-5.8145 21.94132,-8.62104 1.90226,-3.12014 1.10214,-7.71526 -1.68312,-9.66612 -1.9024,-1.3325 -5.31648,-0.9673 -12.35044,1.3211 -15.91124,5.17648 -27.53145,5.84162 -39.39317,2.25486 -10.63196,-3.2149 -18.42022,-8.785678 -23.59722,-16.878638 -6.39286,-9.993658 -8.08796,-20.848378 -4.99296,-31.973198 1.80458,-6.48648 1.84354,-7.11092 0.60038,-9.6232 -1.4519,-2.93408 -3.30268,-4.24652 -6.40934,-4.54504 -3.33632,-0.32056 -4.61688,0.48562 -6.1007,3.8408 -2.98322,6.74558 -3.70566,11.27688 -3.6292,22.76286 0.0552,8.28844 0.0974,8.5892 2.01144,14.2875 2.24938,6.696998 4.35392,10.753778 8.45676,16.301656 6.20666,8.39266 15.8112,15.10382 26.6256,18.60466 4.726,1.52988 5.11344,1.62656 10.73942,2.6793 5.76798,1.07932 21.44403,0.65866 27.78123,-0.7455 z"
         id="path19" /></g><path
       style="fill:#0e0000;fill-opacity:1;stroke:#fffcff;stroke-width:4;stroke-dasharray:none;stroke-opacity:1"
       d="m 715.66334,315.35749 -1.76426,-2.2485 c -2.96881,-3.78367 -14.2469,-15.17278 -18.16842,-18.3473 -6.99732,-5.66438 -12.55362,-8.80256 -20.63751,-11.65596 -6.57704,-2.3215 -11.23208,-3.1253 -21.69583,-3.7462 -18.74214,-1.11216 -36.75346,-5.3468 -47.81346,-11.24142 -6.03984,-3.21902 -13.60024,-8.32074 -18.06778,-12.19204 -3.48144,-3.01682 -5.83542,-5.5957 -11.12754,-12.19078 -3.43414,-4.27966 -9.04022,-14.38834 -10.5357,-18.99758 -0.35412,-1.0914 -0.7516,-1.98438 -0.88332,-1.98438 -0.1318,0 -17.14157,10.2448 -18.95181,11.01262 -3.57642,1.51694 -12.26884,4.14636 -15.2994,4.628 -16.24788,2.5822 -29.12194,1.5479 -41.3096,-3.31878 -10.0173,-4.00004 -18.63562,-9.64872 -24.46984,-16.03822 -4.84126,-5.302 -5.36558,-5.95386 -8.42906,-10.47954 -5.90286,-8.7202 -11.0234,-20.71664 -14.56854,-34.13124 -1.72806,-6.53884 -3.19762,-20.9402 -3.18582,-31.22012 0.0316,-27.55462 9.48686,-59.037162 25.9149,-86.287562 4.34406,-7.2058 13.58044,-20.32504 17.54112,-24.915197 9.2064,-10.669605 26.98108,-27.0566948 37.4103,-34.4898648 21.75286,-15.5037902 53.86762,-30.3654702 77.34416,-35.7924002 7.66338,-1.77149 21.15647,-4.69878 31.92376,-5.54932 17.19786,-1.35851 34.5854,-0.991679 51.7489,0.74793 9.62392,0.975433 15.67442,2.30221 28.51068,5.41131 24.19259,5.85975 52.98944,19.05858 73.81875,33.8342702 18.16044,12.88247 36.71922,31.5281748 48.94792,49.1771718 16.7151,24.12398 28.12093,52.50532 31.99223,79.606702 1.64866,11.54166 1.64708,31.22854 -0.004,41.275 -0.4542,2.7649 -0.95272,5.97958 -1.1078,7.14374 -0.73522,5.51898 -4.48802,18.1434 -8.10111,27.25208 -3.50474,8.8355 -11.48418,22.25948 -18.0864,30.42708 -8.48098,10.49182 -16.88036,18.28378 -27.2813,25.3084 -12.43202,8.39638 -22.93506,13.0071 -35.88523,15.75318 -12.3426,2.61724 -18.6596,-7.99798 -31.36158,-11.76578 -9.00994,-2.67262 -19.04191,-4.85384 -22.54299,-4.90144 -6.5227,-0.0886 -9.89722,2.52984 -9.97252,7.7383 -0.0648,4.4883 0.39004,5.08464 19.17578,25.13776 3.38103,3.6091 7.69511,8.30752 9.58687,10.4409 1.89178,2.1334 6.05896,6.72658 9.26042,10.20706 l 5.82084,6.32816 z M 646.7076,258.60351 c 7.57678,-1.31452 20.02897,-5.23222 22.52457,-7.08668 3.85966,-2.86806 4.10482,-9.241 0.45802,-11.90648 -2.45764,-1.79634 -4.39137,-1.68144 -11.93283,0.70896 -10.1631,3.22136 -15.22483,4.25534 -22.42683,4.58122 -10.07316,0.45578 -18.1947,-1.30344 -26.9875,-5.84578 -6.40628,-3.30946 -12.98268,-10.07514 -16.28246,-16.75116 -4.89084,-9.89494 -5.4483,-20.2641 -1.69874,-31.5975 1.5342,-4.6373 1.86044,-5.29252 4.8123,-9.66534 7.19684,-10.66122 19.80767,-19.98838 37.77514,-27.93906 5.24008,-2.31876 20.45361,-6.49824 28.04583,-7.70478 10.28737,-1.63486 12.61151,-1.89148 20.10833,-2.22022 14.0444,-0.6159 15.48036,-0.71022 19.2614,-1.2654 12.58152,-1.84732 15.41249,-2.33786 20.42611,-3.5394 3.05594,-0.73238 6.0576,-1.43116 6.67034,-1.55284 0.61276,-0.1216 2.13098,-0.58002 3.37382,-1.01852 1.24286,-0.4385 2.68898,-0.79728 3.2136,-0.79728 1.44032,0 15.60142,13.74346 21.53728,20.90208 3.25275,3.92284 10.18411,13.47062 10.18411,14.02838 0,0.66052 -1.27382,0.98984 -9.45567,2.44456 -7.2094,1.28182 -9.34462,1.40552 -31.02556,1.79736 -26.50949,0.4791 -30.40883,0.87218 -44.84433,4.5206 -15.20289,3.84238 -29.43985,11.17708 -39.98692,20.60078 -8.55968,7.64794 -10.0057,11.67092 -5.88284,16.36658 1.22986,1.40074 2.1827,1.91976 4.03402,2.19738 2.92516,0.43866 4.59332,-0.3769 8.09881,-3.9595 7.85812,-8.03102 20.51985,-15.63688 31.85335,-19.13428 5.87352,-1.8125 18.10218,-4.57488 22.25948,-5.02826 1.52492,-0.1664 4.67134,-0.52456 6.99204,-0.79612 2.3207,-0.27154 12.25801,-0.49372 22.08289,-0.49372 18.58256,0 20.20974,-0.1296 33.22891,-2.64484 11.97556,-2.3137 16.43277,-3.63676 26.19375,-7.7753 10.0885,-4.27738 24.95884,-13.26758 26.71806,-16.15296 2.13082,-3.4949 0.87342,-8.25096 -2.76844,-10.47142 -2.98532,-1.82018 -5.02392,-1.41882 -10.26566,2.0212 -7.28168,4.77876 -20.42488,11.74052 -22.15062,11.73286 -0.29104,-10e-4 -1.91938,-2.28052 -3.61852,-5.06496 -4.59975,-7.53776 -10.63031,-14.7733 -20.81838,-24.97808 l -9.13308,-9.14808 2.312,-3.02276 c 10.66925,-13.94918 11.59745,-31.257662 2.42844,-45.284002 -4.53326,-6.93478 -7.96734,-8.81438 -12.58816,-6.89002 -2.87514,1.19738 -4.33482,3.00458 -4.71476,5.83728 -0.25444,1.89704 0.0294,2.577 2.90204,6.95178 4.26218,6.49094 5.13982,9.15482 5.09346,15.46014 -0.0504,6.848282 -1.34834,10.145562 -5.72232,14.536442 -6.2504,6.27452 -11.22286,8.82776 -22.55115,11.57948 -7.55838,1.83598 -12.66372,2.43896 -25.4,2.99992 -5.96634,0.26278 -11.80042,0.59822 -12.96458,0.74538 -1.16416,0.1472 -4.37886,0.52948 -7.14374,0.84956 -13.22949,1.53156 -32.94968,6.33206 -41.73464,10.1595 -23.97878,10.44708 -40.50318,24.38694 -49.03212,41.3631 -3.79896,7.56152 -4.96936,12.96644 -5.05304,23.33536 -0.0664,8.22252 0.5106,12.32086 2.52368,17.92576 6.52842,18.17676 20.3502,30.304 40.20845,35.27894 8.63009,2.16202 21.17281,2.49126 30.86266,0.81014 z m 63.62439,-22.22484 c 6.46073,-2.15532 12.25995,-3.6517 18.39645,-4.74682 7.0536,-1.2588 8.215,-1.40334 16.98784,-2.11422 9.40492,-0.76208 10.82511,-1.35122 12.33119,-5.11526 1.14926,-2.87232 0.42598,-5.64766 -2.03503,-7.80844 -2.47,-2.1687 -3.96154,-2.3834 -11.88524,-1.7108 -16.47542,1.3985 -39.10269,6.6107 -43.95369,10.12474 -6.0862,4.40882 -3.93104,13.05898 3.2793,13.16216 0.79602,0.012 3.89164,-0.79472 6.87918,-1.79136 z m 93.63029,-12.7382 c 3.22818,-2.1363 5.07774,-4.38118 6.32072,-7.67168 2.0595,-5.452 0.62202,-11.65654 -3.54912,-15.31884 -5.32834,-4.67834 -12.24108,-4.95998 -18.32118,-0.74646 -4.86252,3.36972 -6.72946,11.91214 -3.81122,17.43866 1.88306,3.56608 3.08162,4.73174 6.80164,6.61494 2.86844,1.4521 3.58316,1.5981 6.77788,1.38458 2.75408,-0.184 4.07702,-0.57336 5.78128,-1.7012 z M 478.59969,184.67879 c 2.1376,-1.10094 3.54536,-2.76192 4.10624,-4.84488 0.4595,-1.70644 0.32574,-3.0586 -0.76244,-7.70738 -2.20536,-9.42146 -2.59896,-14.15304 -2.32088,-27.9006 0.2075,-10.25936 0.47586,-13.71666 1.41414,-18.2185 6.85548,-32.892782 24.84988,-61.739662 53.62156,-85.960822 6.99926,-5.89226 24.58706,-17.324282 33.99722,-22.098082 19.19336,-9.7368498 41.63614,-16.3549898 64.29374,-18.9595498 7.5207,-0.86453 30.09223,-0.71289 39.26416,0.26377998 17.5573,1.86959002 35.0922,6.06236002 49.98675,11.95232982 5.28268,2.08902 19.47652,9.35842 26.8572,13.75496 6.40254,3.813905 17.62085,12.067982 23.59173,17.358042 5.58373,4.94704 13.66217,13.1802 18.88635,19.24804 2.4449,2.83972 4.964,5.44076 5.598,5.78006 3.24784,1.7382 8.2573,-0.108 9.70694,-3.57752 1.54814,-3.70526 0.61318,-6.02044 -5.11526,-12.66634 -15.85648,-18.396121 -36.86451,-34.879422 -58.81478,-46.1472218 -15.17548,-7.79007 -36.72961,-15.2428302 -50.16525,-17.3456302 -0.72762,-0.11388 -4.65668,-0.78812 -8.73126,-1.49832 -10.24234,-1.78526 -10.98386,-1.84932 -25.91751,-2.23909 -19.28701,-0.5034 -32.30949,0.80757 -50.54707,5.08856 -18.2943,4.2943002 -29.74758,8.4703802 -45.77292,16.6896502 -34.80574,17.8515698 -61.44472,43.1907118 -79.58242,75.6991918 -7.42284,13.30408 -13.7645,31.818862 -16.235,47.398802 -1.33446,8.4157 -1.63884,27.895 -0.54458,34.85122 1.1847,7.5311 3.3732,16.32656 4.5155,18.14766 1.93266,3.08106 5.82452,4.39708 8.66984,2.93164 z m 35.87352,-15.80522 c 2.24668,-2.36176 2.40178,-2.9803 2.81976,-11.2455 0.3442,-6.80594 1.36094,-12.05554 3.72414,-19.22832 4.01318,-12.1808 11.33892,-24.9076 19.50842,-33.89144 13.68076,-15.044482 29.29944,-25.907282 49.56124,-34.469882 11.85496,-5.00988 29.90022,-9.78734 44.5823,-11.80312 9.57932,-1.31518 11.46533,-1.51722 14.30447,-1.53238 3.662,-0.02 6.14928,-0.96338 7.68546,-2.91632 3.11872,-3.9648 0.99674,-9.97734 -4.00908,-11.3595 -2.01608,-0.55668 -11.33181,0.0398 -20.49439,1.31198 -22.72236,3.15518 -49.0837,12.05906 -67.1067,22.66616 -19.22418,11.31402 -34.21874,25.18116 -45.88718,42.436962 -10.21898,15.11226 -16.10762,33.48076 -16.47142,51.3794 -0.1116,5.48798 -0.0294,6.03596 1.16584,7.78034 1.60952,2.34894 2.74046,2.90368 6.0116,2.94882 2.35938,0.0326 2.77832,-0.1564 4.60554,-2.0772 z m 37.965,-2.28786 c 0.68486,-0.63546 2.38368,-3.41756 3.77518,-6.18246 2.29944,-4.56894 3.5554,-6.59574 8.92828,-14.40772 1.94768,-2.83186 9.24174,-10.31852 14.37074,-14.75024 6.80404,-5.87902 18.4634,-13.07972 27.65268,-17.07804 12.8171,-5.5768 23.24078,-8.36822 36.89668,-9.88074 5.46225,-0.605 23.034,-0.45552 27.11762,0.23068 6.20006,1.04186 13.38954,2.6284 17.33238,3.82486 2.47386,0.75068 5.8952,1.62966 7.603,1.95326 2.80562,0.53164 3.28748,0.48262 4.9963,-0.5084 5.26446,-3.05314 4.94546,-10.347682 -0.57818,-13.221122 -2.29522,-1.19398 -13.57462,-4.4849 -17.84196,-5.20564 -2.23744,-0.3779 -8.10114,-1.29998 -10.05416,-1.58104 -5.6303,-0.81026 -22.43555,-0.86334 -30.1625,-0.0952 -9.01336,0.89594 -9.3802,0.95354 -15.875,2.49206 -20.10534,4.76268 -37.45648,12.851582 -53.2727,24.835102 -5.04438,3.82198 -15.40108,14.1011 -19.51236,19.3662 -6.45204,8.26276 -12.836,19.8339 -13.32212,24.14676 -0.45754,4.05922 1.89544,7.06474 6.11628,7.8125 2.27346,0.40276 4.10014,-0.1458 5.82984,-1.75076 z m 279.81857,-32.23818 c 2.97484,-2.0384 3.55588,-4.13924 2.83372,-10.24586 -1.246,-10.53642 -5.16042,-25.113942 -8.32544,-31.004442 -1.31958,-2.4559 -3.9397,-4.1507 -6.3692,-4.11986 -3.27584,0.0416 -7.5232,3.85354 -7.52794,6.75618 -10e-4,0.66636 1.4157,5.428862 3.14842,10.583342 2.2806,6.78434 3.45296,11.32082 4.24628,16.43124 0.60274,3.8827 1.43292,7.86608 1.84484,8.85196 1.53956,3.68464 6.7307,5.0899 10.14932,2.74744 z M 705.87769,63.192368 c 2.99148,-1.24226 6.30208,-4.73532 7.48536,-7.89794 2.64407,-7.06688 -0.0354,-14.30958 -6.59504,-17.82734 -3.02374,-1.62154 -9.68198,-1.6136 -12.7501,0.016 -4.54568,2.4132 -7.37822,7.1649 -7.5652,12.69092 -0.32748,9.67916 10.30594,16.80598 19.42498,13.01916 z"
       id="path8"
       sodipodi:nodetypes="cssssssssssssssssssssaasssscsssssssssssccsssssssssssssscsssssssssssscssssssscsscsssssssssssssssssssssssscsssssssssssssssssssssssscssssssssssssssssscsscssssssssssssssssssssssssssssssscsssscsscscc" /></g></svg>
